<svg width="1164" height="814" viewBox="0 0 1164 814" fill="none" xmlns="http://www.w3.org/2000/svg">
<g opacity="0.3">
<path d="M945.292 0H248.107C216.02 0 190.008 26.0117 190.008 58.0988V755.284C190.008 787.371 216.02 813.383 248.107 813.383H945.292C977.379 813.383 1003.39 787.371 1003.39 755.284V58.0988C1003.39 26.0117 977.379 0 945.292 0Z" fill="#F4F6F8"/>
<g filter="url(#filter0_d_802_6309)">
<path d="M847.822 56.9368H64.0294C47.9969 56.9368 35 69.9426 35 85.9862V231.233C35 247.277 47.9969 260.282 64.0294 260.282H847.822C863.854 260.282 876.851 247.277 876.851 231.233V85.9862C876.851 69.9426 863.854 56.9368 847.822 56.9368Z" fill="white"/>
</g>
<path d="M435.605 103.416H284.652C275.033 103.416 267.234 111.22 267.234 120.846C267.234 130.472 275.033 138.275 284.652 138.275H435.605C445.224 138.275 453.022 130.472 453.022 120.846C453.022 111.22 445.224 103.416 435.605 103.416Z" fill="#F4F6F8"/>
<path d="M540.11 178.944H284.652C275.033 178.944 267.234 186.748 267.234 196.374C267.234 206 275.033 213.804 284.652 213.804H540.11C549.73 213.804 557.528 206 557.528 196.374C557.528 186.748 549.73 178.944 540.11 178.944Z" fill="#DCE3F1"/>
<path d="M195.816 75.5283H85.4283C69.3848 75.5283 56.3789 88.5342 56.3789 104.578V214.965C56.3789 231.009 69.3848 244.015 85.4283 244.015H195.816C211.86 244.015 224.865 231.009 224.865 214.965V104.578C224.865 88.5342 211.86 75.5283 195.816 75.5283Z" fill="url(#paint0_linear_802_6309)"/>
<path d="M127.386 178.828H139.006L139.133 174.354C139.133 168.475 142.84 166.941 148.081 165.279C153.337 163.784 157.964 160.618 161.262 156.259C164.56 151.901 166.349 146.587 166.358 141.122C166.474 137.785 165.895 134.461 164.658 131.359C163.422 128.257 161.556 125.446 159.177 123.103C156.798 120.761 153.958 118.937 150.838 117.748C147.718 116.56 144.385 116.032 141.051 116.198C137.526 116.121 134.023 116.761 130.754 118.078C127.484 119.396 124.517 121.364 122.031 123.863C119.544 126.362 117.592 129.34 116.291 132.617C114.991 135.893 114.369 139.399 114.465 142.923H126.479C126.434 140.977 126.777 139.042 127.489 137.231C128.201 135.42 129.267 133.769 130.625 132.375C131.983 130.981 133.606 129.872 135.398 129.114C137.19 128.355 139.116 127.962 141.062 127.957C142.817 127.855 144.574 128.132 146.212 128.77C147.85 129.407 149.332 130.39 150.557 131.651C151.782 132.912 152.721 134.422 153.31 136.078C153.899 137.735 154.125 139.498 153.972 141.25C153.894 144.084 152.909 146.819 151.16 149.051C149.411 151.283 146.991 152.895 144.258 153.648L140.04 155.321C135.91 156.316 132.305 158.826 129.938 162.353C127.57 165.88 126.614 170.167 127.258 174.366L127.386 178.828ZM133.138 206.448C134.275 206.489 135.41 206.301 136.474 205.895C137.537 205.489 138.509 204.875 139.331 204.087C140.154 203.3 140.81 202.355 141.261 201.31C141.712 200.264 141.948 199.139 141.957 198.001C141.947 196.863 141.709 195.739 141.257 194.695C140.806 193.651 140.149 192.708 139.327 191.922C138.505 191.135 137.534 190.522 136.471 190.117C135.408 189.712 134.274 189.524 133.138 189.565C132.001 189.524 130.867 189.712 129.804 190.117C128.741 190.522 127.77 191.135 126.948 191.922C126.126 192.708 125.469 193.651 125.018 194.695C124.566 195.739 124.328 196.863 124.318 198.001C124.327 199.139 124.564 200.264 125.014 201.31C125.465 202.355 126.121 203.3 126.944 204.087C127.766 204.875 128.738 205.489 129.801 205.895C130.865 206.301 132 206.489 133.138 206.448Z" fill="white"/>
<g filter="url(#filter1_d_802_6309)">
<path d="M1099.97 305.019H316.178C308.479 305.019 301.095 308.079 295.651 313.527C290.207 318.975 287.149 326.364 287.149 334.068V479.315C287.149 487.019 290.207 494.408 295.651 499.856C301.095 505.304 308.479 508.364 316.178 508.364H1099.97C1107.67 508.364 1115.05 505.304 1120.5 499.856C1125.94 494.408 1129 487.019 1129 479.315V334.068C1129 326.364 1125.94 318.975 1120.5 313.527C1115.05 308.079 1107.67 305.019 1099.97 305.019V305.019Z" fill="white"/>
</g>
<path d="M728.395 351.497H879.348C888.967 351.497 896.766 359.301 896.766 368.927C896.766 378.553 888.967 386.356 879.348 386.356H728.395C718.776 386.356 710.978 378.553 710.978 368.927C710.978 359.301 718.776 351.497 728.395 351.497Z" fill="#F4F6F8"/>
<path d="M623.89 427.025H879.348C888.967 427.025 896.766 434.829 896.766 444.455C896.766 454.081 888.967 461.885 879.348 461.885H623.89C614.27 461.885 606.472 454.081 606.472 444.455C606.472 434.829 614.27 427.025 623.89 427.025Z" fill="#DCE3F1"/>
<path d="M1082.55 322.448H972.24C956.208 322.448 943.211 335.454 943.211 351.497V461.885C943.211 477.928 956.208 490.934 972.24 490.934H1082.55C1098.58 490.934 1111.58 477.928 1111.58 461.885V351.497C1111.58 335.454 1098.58 322.448 1082.55 322.448Z" fill="url(#paint1_linear_802_6309)"/>
<path d="M1014.17 425.747H1025.78L1025.91 421.274C1025.91 415.394 1029.61 413.86 1034.85 412.199C1040.1 410.703 1044.73 407.537 1048.02 403.179C1051.32 398.82 1053.11 393.507 1053.12 388.041C1053.23 384.704 1052.65 381.38 1051.42 378.278C1050.18 375.177 1048.32 372.365 1045.94 370.023C1043.56 367.68 1040.72 365.856 1037.61 364.667C1034.49 363.479 1031.16 362.951 1027.83 363.117C1024.3 363.04 1020.8 363.68 1017.54 364.997C1014.27 366.315 1011.3 368.283 1008.82 370.782C1006.33 373.281 1004.38 376.259 1003.08 379.536C1001.78 382.812 1001.16 386.318 1001.26 389.842H1013.26C1013.22 387.897 1013.56 385.961 1014.27 384.15C1014.98 382.339 1016.05 380.688 1017.41 379.294C1018.76 377.9 1020.39 376.791 1022.18 376.033C1023.97 375.274 1025.89 374.881 1027.84 374.876C1029.59 374.774 1031.35 375.051 1032.98 375.689C1034.62 376.326 1036.1 377.309 1037.32 378.57C1038.55 379.831 1039.49 381.341 1040.08 382.998C1040.66 384.654 1040.89 386.418 1040.74 388.169C1040.66 391.004 1039.68 393.738 1037.93 395.97C1036.18 398.203 1033.76 399.814 1031.03 400.567L1026.81 402.24C1022.69 403.235 1019.09 405.745 1016.72 409.272C1014.35 412.799 1013.4 417.087 1014.04 421.285L1014.17 425.747ZM1019.92 453.367C1021.05 453.408 1022.19 453.22 1023.25 452.814C1024.31 452.409 1025.29 451.794 1026.11 451.006C1026.93 450.219 1027.58 449.274 1028.04 448.229C1028.49 447.184 1028.72 446.058 1028.73 444.92C1028.72 443.782 1028.48 442.658 1028.03 441.614C1027.58 440.57 1026.92 439.627 1026.1 438.841C1025.28 438.055 1024.31 437.441 1023.25 437.036C1022.19 436.631 1021.05 436.443 1019.92 436.484C1018.78 436.443 1017.65 436.631 1016.59 437.036C1015.52 437.441 1014.55 438.055 1013.73 438.841C1012.91 439.627 1012.25 440.57 1011.8 441.614C1011.35 442.658 1011.11 443.782 1011.1 444.92C1011.11 446.058 1011.35 447.184 1011.8 448.229C1012.25 449.274 1012.91 450.219 1013.73 451.006C1014.55 451.794 1015.52 452.409 1016.58 452.814C1017.65 453.22 1018.78 453.408 1019.92 453.367Z" fill="white"/>
<g filter="url(#filter2_d_802_6309)">
<path d="M64.0294 557.167H847.822C855.521 557.167 862.905 560.228 868.349 565.676C873.793 571.124 876.851 578.512 876.851 586.217V731.464C876.851 739.168 873.793 746.557 868.349 752.005C862.905 757.453 855.521 760.513 847.822 760.513H64.0294C56.3303 760.513 48.9466 757.453 43.5025 752.005C38.0584 746.557 35 739.168 35 731.464V586.217C35 578.512 38.0584 571.124 43.5025 565.676C48.9466 560.228 56.3303 557.167 64.0294 557.167V557.167Z" fill="white"/>
</g>
<path d="M435.605 603.646H284.652C275.033 603.646 267.234 611.45 267.234 621.076C267.234 630.702 275.033 638.506 284.652 638.506H435.605C445.224 638.506 453.022 630.702 453.022 621.076C453.022 611.45 445.224 603.646 435.605 603.646Z" fill="#F4F6F8"/>
<path d="M540.11 679.175H284.652C275.033 679.175 267.234 686.978 267.234 696.604C267.234 706.231 275.033 714.034 284.652 714.034H540.11C549.73 714.034 557.528 706.231 557.528 696.604C557.528 686.978 549.73 679.175 540.11 679.175Z" fill="#DCE3F1"/>
<path d="M191.761 574.597H81.4493C65.4168 574.597 52.4199 587.603 52.4199 603.647V714.034C52.4199 730.078 65.4168 743.084 81.4493 743.084H191.761C207.793 743.084 220.79 730.078 220.79 714.034V603.647C220.79 587.603 207.793 574.597 191.761 574.597Z" fill="url(#paint2_linear_802_6309)"/>
<path d="M123.379 677.897H134.991L135.118 673.423C135.118 667.543 138.822 666.01 144.059 664.348C149.313 662.853 153.936 659.686 157.232 655.328C160.527 650.97 162.315 645.656 162.325 640.191C162.44 636.854 161.861 633.529 160.626 630.428C159.39 627.326 157.525 624.515 155.148 622.172C152.771 619.829 149.933 618.006 146.815 616.817C143.697 615.628 140.367 615.1 137.034 615.266C133.512 615.189 130.012 615.829 126.745 617.147C123.477 618.465 120.512 620.433 118.027 622.932C115.543 625.431 113.592 628.409 112.292 631.685C110.992 634.961 110.371 638.468 110.467 641.992H122.473C122.427 640.046 122.77 638.111 123.482 636.3C124.193 634.488 125.259 632.837 126.616 631.443C127.973 630.05 129.595 628.941 131.386 628.182C133.177 627.424 135.101 627.03 137.046 627.025C138.8 626.924 140.555 627.201 142.192 627.838C143.829 628.476 145.31 629.458 146.534 630.72C147.758 631.981 148.696 633.491 149.285 635.147C149.874 636.803 150.099 638.567 149.946 640.318C149.869 643.153 148.884 645.888 147.136 648.12C145.389 650.352 142.971 651.963 140.239 652.717L136.024 654.39C131.897 655.385 128.294 657.894 125.929 661.422C123.563 664.949 122.608 669.236 123.251 673.435L123.379 677.897ZM129.127 705.517C130.264 705.557 131.397 705.369 132.46 704.964C133.524 704.558 134.495 703.943 135.316 703.156C136.138 702.368 136.793 701.424 137.244 700.378C137.695 699.333 137.931 698.208 137.94 697.069C137.93 695.932 137.692 694.808 137.241 693.764C136.789 692.72 136.134 691.777 135.312 690.99C134.491 690.204 133.52 689.59 132.458 689.185C131.395 688.781 130.263 688.593 129.127 688.633C127.991 688.593 126.858 688.781 125.796 689.185C124.733 689.59 123.763 690.204 122.941 690.99C122.12 691.777 121.464 692.72 121.013 693.764C120.561 694.808 120.323 695.932 120.313 697.069C120.322 698.208 120.558 699.333 121.009 700.378C121.46 701.424 122.115 702.368 122.937 703.156C123.759 703.943 124.73 704.558 125.793 704.964C126.856 705.369 127.99 705.557 129.127 705.517Z" fill="white"/>
</g>
<defs>
<filter id="filter0_d_802_6309" x="0.140732" y="39.5071" width="911.57" height="273.064" filterUnits="userSpaceOnUse" color-interpolation-filters="sRGB">
<feFlood flood-opacity="0" result="BackgroundImageFix"/>
<feColorMatrix in="SourceAlpha" type="matrix" values="0 0 0 0 0 0 0 0 0 0 0 0 0 0 0 0 0 0 127 0" result="hardAlpha"/>
<feOffset dy="17.4296"/>
<feGaussianBlur stdDeviation="17.4296"/>
<feColorMatrix type="matrix" values="0 0 0 0 0 0 0 0 0 0 0 0 0 0 0 0 0 0 0.161 0"/>
<feBlend mode="normal" in2="BackgroundImageFix" result="effect1_dropShadow_802_6309"/>
<feBlend mode="normal" in="SourceGraphic" in2="effect1_dropShadow_802_6309" result="shape"/>
</filter>
<filter id="filter1_d_802_6309" x="252.289" y="287.589" width="911.57" height="273.064" filterUnits="userSpaceOnUse" color-interpolation-filters="sRGB">
<feFlood flood-opacity="0" result="BackgroundImageFix"/>
<feColorMatrix in="SourceAlpha" type="matrix" values="0 0 0 0 0 0 0 0 0 0 0 0 0 0 0 0 0 0 127 0" result="hardAlpha"/>
<feOffset dy="17.4296"/>
<feGaussianBlur stdDeviation="17.4296"/>
<feColorMatrix type="matrix" values="0 0 0 0 0 0 0 0 0 0 0 0 0 0 0 0 0 0 0.161 0"/>
<feBlend mode="normal" in2="BackgroundImageFix" result="effect1_dropShadow_802_6309"/>
<feBlend mode="normal" in="SourceGraphic" in2="effect1_dropShadow_802_6309" result="shape"/>
</filter>
<filter id="filter2_d_802_6309" x="0.140732" y="539.738" width="911.57" height="273.064" filterUnits="userSpaceOnUse" color-interpolation-filters="sRGB">
<feFlood flood-opacity="0" result="BackgroundImageFix"/>
<feColorMatrix in="SourceAlpha" type="matrix" values="0 0 0 0 0 0 0 0 0 0 0 0 0 0 0 0 0 0 127 0" result="hardAlpha"/>
<feOffset dy="17.4296"/>
<feGaussianBlur stdDeviation="17.4296"/>
<feColorMatrix type="matrix" values="0 0 0 0 0 0 0 0 0 0 0 0 0 0 0 0 0 0 0.161 0"/>
<feBlend mode="normal" in2="BackgroundImageFix" result="effect1_dropShadow_802_6309"/>
<feBlend mode="normal" in="SourceGraphic" in2="effect1_dropShadow_802_6309" result="shape"/>
</filter>
<linearGradient id="paint0_linear_802_6309" x1="31.5442" y1="75.5284" x2="232.883" y2="86.8557" gradientUnits="userSpaceOnUse">
<stop stop-color="#FF7000"/>
<stop offset="0.9999" stop-color="#E2985E"/>
<stop offset="1" stop-color="#E2995F"/>
</linearGradient>
<linearGradient id="paint1_linear_802_6309" x1="918.393" y1="322.448" x2="1119.59" y2="333.76" gradientUnits="userSpaceOnUse">
<stop stop-color="#FF7000"/>
<stop offset="0.9999" stop-color="#E2985E"/>
<stop offset="1" stop-color="#E2995F"/>
</linearGradient>
<linearGradient id="paint2_linear_802_6309" x1="27.6023" y1="574.597" x2="228.803" y2="585.909" gradientUnits="userSpaceOnUse">
<stop stop-color="#FF7000"/>
<stop offset="0.9999" stop-color="#E2985E"/>
<stop offset="1" stop-color="#E2995F"/>
</linearGradient>
</defs>
</svg>
