<svg width="23" height="24" viewBox="0 0 23 24" fill="none" xmlns="http://www.w3.org/2000/svg">
<path d="M21.4374 6.21223C20.1163 3.94402 18.0591 2.196 15.6073 1.2585C13.1556 0.321002 10.4569 0.25045 7.95952 1.05856C5.46214 1.86668 3.31636 3.50482 1.87859 5.70091C0.440827 7.89699 -0.2024 10.5189 0.0557509 13.131C0.313902 15.7431 1.45789 18.1884 3.29771 20.0606C5.13754 21.9327 7.56246 23.1192 10.1697 23.4228C12.777 23.7264 15.4096 23.129 17.6304 21.7297C19.8513 20.3305 21.5265 18.2136 22.3781 15.7306L11.5 12L21.4374 6.21223Z" fill="url(#paint0_linear_74208_5938)"/>
<defs>
<linearGradient id="paint0_linear_74208_5938" x1="-3.39017" y1="0.500005" x2="24.0945" y2="2.04629" gradientUnits="userSpaceOnUse">
<stop stop-color="#FF7000"/>
<stop offset="0.9999" stop-color="#E2985E"/>
<stop offset="1" stop-color="#E2995F"/>
</linearGradient>
</defs>
</svg>
